<svg width="37" height="37" viewBox="0 0 37 37" fill="none" xmlns="http://www.w3.org/2000/svg">
<path d="M10.7916 33.9167C9.94371 33.9167 9.21784 33.6148 8.61402 33.0109C8.0102 32.4071 7.70829 31.6812 7.70829 30.8333C7.70829 29.9854 8.0102 29.2595 8.61402 28.6557C9.21784 28.0519 9.94371 27.75 10.7916 27.75C11.6395 27.75 12.3654 28.0519 12.9692 28.6557C13.573 29.2595 13.875 29.9854 13.875 30.8333C13.875 31.6812 13.573 32.4071 12.9692 33.0109C12.3654 33.6148 11.6395 33.9167 10.7916 33.9167ZM26.2083 33.9167C25.3604 33.9167 24.6345 33.6148 24.0307 33.0109C23.4269 32.4071 23.125 31.6812 23.125 30.8333C23.125 29.9854 23.4269 29.2595 24.0307 28.6557C24.6345 28.0519 25.3604 27.75 26.2083 27.75C27.0562 27.75 27.7821 28.0519 28.3859 28.6557C28.9897 29.2595 29.2916 29.9854 29.2916 30.8333C29.2916 31.6812 28.9897 32.4071 28.3859 33.0109C27.7821 33.6148 27.0562 33.9167 26.2083 33.9167ZM9.48121 9.24999L13.1812 16.9583H23.9729L28.2125 9.24999H9.48121ZM8.01663 6.16666H30.7562C31.3472 6.16666 31.7968 6.43003 32.1052 6.95677C32.4135 7.4835 32.4263 8.01666 32.1437 8.55624L26.6708 18.4229C26.3882 18.9368 26.0092 19.3351 25.5338 19.6177C25.0585 19.9003 24.5382 20.0417 23.9729 20.0417H12.4875L10.7916 23.125H29.2916V26.2083H10.7916C9.63538 26.2083 8.76176 25.7009 8.17079 24.6859C7.57982 23.671 7.55413 22.6625 8.09371 21.6604L10.175 17.8833L4.62496 6.16666H1.54163V3.08333H6.55204L8.01663 6.16666Z" fill="white"/>
</svg>
