<svg width="33" height="33" viewBox="0 0 33 33" fill="none" xmlns="http://www.w3.org/2000/svg">
<path d="M29.7417 32.25L18.4542 20.9625C17.5583 21.6792 16.5281 22.2465 15.3635 22.6646C14.199 23.0826 12.9597 23.2917 11.6458 23.2917C8.39097 23.2917 5.63628 22.1644 3.38177 19.9099C1.12726 17.6554 0 14.9007 0 11.6458C0 8.39097 1.12726 5.63628 3.38177 3.38177C5.63628 1.12726 8.39097 0 11.6458 0C14.9007 0 17.6554 1.12726 19.9099 3.38177C22.1644 5.63628 23.2917 8.39097 23.2917 11.6458C23.2917 12.9597 23.0826 14.199 22.6646 15.3635C22.2465 16.5281 21.6792 17.5583 20.9625 18.4542L32.25 29.7417L29.7417 32.25ZM11.6458 19.7083C13.8854 19.7083 15.7891 18.9245 17.3568 17.3568C18.9245 15.7891 19.7083 13.8854 19.7083 11.6458C19.7083 9.40625 18.9245 7.5026 17.3568 5.9349C15.7891 4.36719 13.8854 3.58333 11.6458 3.58333C9.40625 3.58333 7.5026 4.36719 5.9349 5.9349C4.36719 7.5026 3.58333 9.40625 3.58333 11.6458C3.58333 13.8854 4.36719 15.7891 5.9349 17.3568C7.5026 18.9245 9.40625 19.7083 11.6458 19.7083Z" fill="white"/>
</svg>
